<?xml version="1.0" encoding="UTF-8"?>
<svg width="104px" height="51px" viewBox="0 0 104 51" version="1.1" xmlns="http://www.w3.org/2000/svg" xmlns:xlink="http://www.w3.org/1999/xlink">
    <!-- Generator: Sketch 44.1 (41455) - http://www.bohemiancoding.com/sketch -->
    <title>Trumf</title>
    <desc>Created with Sketch.</desc>
    <defs></defs>
    <g id="Page-1" stroke="none" stroke-width="1" fill="none" fill-rule="evenodd">
        <g id="Trumf" fill-rule="nonzero" fill="#0076DF">
            <path d="M33.4,11.9 C33.4,10 34.6,8.8 36.2,8.8 C37.9,8.8 39.1,10 39.1,11.9 L39.1,21.8 C39.1,24.1 40.9,25.4 42.8,25.4 C44.7,25.4 46.5,24.1 46.5,21.8 L46.5,11.9 C46.5,10 47.7,8.8 49.4,8.8 C51.1,8.8 52.3,10 52.3,11.9 L52.3,21.9 C52.3,26.8 48.9,30 42.9,30 C36.9,30 33.5,26.8 33.5,21.9 L33.5,11.9 L33.4,11.9 Z" id="Shape"></path>
            <path d="M55.1,11.9 C55.1,10 56.3,8.8 58,8.8 C59.5,8.8 60.4,9.6 60.6,10.9 C62,9.4 63.8,8.6 65.9,8.6 C68.3,8.6 70.3,9.6 71.8,11.4 C73.4,9.6 75.9,8.6 77.8,8.6 C82.4,8.6 85.6,11.2 85.6,16.1 L85.6,26.8 C85.6,28.7 84.4,29.9 82.7,29.9 C81,29.9 79.8,28.7 79.8,26.8 L79.8,17.1 C79.8,14.9 78.5,13.3 76.5,13.3 C74.4,13.3 73.1,14.9 73.1,17.1 L73.1,26.8 C73.1,28.7 71.9,29.9 70.3,29.9 C68.7,29.9 67.4,28.7 67.4,26.8 L67.4,17.1 C67.4,14.9 66.1,13.3 64.1,13.3 C61.8,13.3 60.7,14.9 60.7,17.1 L60.7,26.8 C60.7,28.7 59.5,29.9 57.8,29.9 C56.1,29.9 54.9,28.7 54.9,26.8 L54.9,11.9 L55.1,11.9 Z" id="Shape"></path>
            <path d="M89.2,6.3 C89.2,2.2 91.7,0 95.2,0 C97.2,0 99.2,0.6 99.2,2.5 C99.2,4.1 98.4,4.9 96.9,4.9 C96,4.9 95,4.9 95,6.9 L95,9.2 L96.3,9.2 C98,9.2 99.2,9.9 99.2,11.6 C99.2,13.3 98,14 96.3,14 L95,14 L95,26.7 C95,28.6 93.8,29.8 92.1,29.8 C90.4,29.8 89.2,28.6 89.2,26.7 L89.2,6.3 L89.2,6.3 Z" id="Shape"></path>
            <path d="M18.9,26.8 C18.9,28.6 20.1,29.9 21.7,29.9 C23.4,29.9 24.6,28.7 24.6,26.8 L24.6,18.3 C24.6,15.8 26.3,15.1 28,14.4 C29.7,13.6 31.4,13.5 31.4,11.7 C31.4,10.1 30.4,9.4 29.4,9.1 C29.2,9 28.7,8.9 28,9 C26.3,9.3 24.4,11.2 24.4,11.3 C24.4,11.3 24.4,11.2 24.4,11.1 C24.2,9.8 23.3,9 21.8,9 C20.1,9 18.9,10.2 18.9,12.1 L18.9,26.8 C18.9,26.8 18.9,26.8 18.9,26.8" id="Shape"></path>
            <path d="M13.8,25.2 C12.8,25.2 11.9,25.2 11.9,23.1 L11.9,13.6 L13.3,13.6 C15,13.6 16.2,12.9 16.2,11.2 C16.2,9.5 15,8.8 13.3,8.8 L11.9,8.8 L11.9,3.2 C11.9,1.3 10.7,0.1 9,0.1 C7.3,0.1 6.1,1.3 6.1,3.2 L6.1,23.8 C6.1,27.9 8.6,30.2 12.1,30.2 C14.1,30.2 16.1,29.6 16.1,27.7 C16.1,25.9 15.3,25.2 13.8,25.2" id="Shape"></path>
            <path d="M4.6,7.4 C4.4,7.4 4.1,7.3 3.9,7.3 C1.8,7.3 5.68434189e-14,9 5.68434189e-14,11.2 C5.68434189e-14,13.3 1.7,15.1 3.9,15.1 C4.1,15.1 4.4,15.1 4.6,15 L4.6,7.4 Z" id="Shape"></path>
        </g>
    </g>
</svg>