<svg width="82" height="82" viewBox="0 0 82 82" xmlns="http://www.w3.org/2000/svg"><g fill="none" fill-rule="evenodd"><path d="M81.701 41.202c0 22.367-18.133 40.5-40.5 40.5s-40.5-18.133-40.5-40.5 18.133-40.5 40.5-40.5 40.5 18.133 40.5 40.5" fill="#transparent"/><path d="M48.31 57.705c-1.522 0-3.044 0-3.044-3.278V39.235h2.214c2.735 0 4.64-1.056 4.64-3.904 0-2.776-1.968-3.892-4.64-3.892h-2.214v-8.992c0-2.97-1.907-4.946-4.573-4.946-2.667 0-4.572 1.976-4.572 4.946v32.91c0 6.557 3.998 10.143 9.59 10.143 3.235 0 6.345-.928 6.345-4.026 0-2.595-1.203-3.769-3.745-3.769M32.066 30.382a5.048 5.048 0 1 0 .002 9.921l-.002-9.92z" fill="#FFF"/></g></svg>